PathFileType	4	(X/Y/Z)	c:/Users/goper/Files/vsCode/490R/osim_files/A06/A06_Slow_02.trc
DataRate	CameraRate	NumFrames	NumMarkers	Units                	OrigDataRate	OrigDataStartFrame	OrigNumFrames
120.00	120.00	9	36	mm	120.0	433	1154
                Frame#	Time	LPSIS			LASIS			LTH1			LTH2			LTH3			LTH4			LLFE			LMFE			LSH1			LSH2			LSH3			LSH4			LLMAL			LMMAL			LCAL			LMTP5			LTOE			LMTP1			RPSIS			RASIS			RTH1			RTH2			RTH3			RTH4			RLFE			RMFE			RSH1			RSH2			RSH3			RSH4			RLMAL			RMMAL			RCAL			RMTP1			RTOE			RMTP5		
		X1	Y1	Z1	X2	Y2	Z2	X3	Y3	Z3	X4	Y4	Z4	X5	Y5	Z5	X6	Y6	Z6	X7	Y7	Z7	X8	Y8	Z8	X9	Y9	Z9	X10	Y10	Z10	X11	Y11	Z11	X12	Y12	Z12	X13	Y13	Z13	X14	Y14	Z14	X15	Y15	Z15	X16	Y16	Z16	X17	Y17	Z17	X18	Y18	Z18	X19	Y19	Z19	X20	Y20	Z20	X21	Y21	Z21	X22	Y22	Z22	X23	Y23	Z23	X24	Y24	Z24	X25	Y25	Z25	X26	Y26	Z26	X27	Y27	Z27	X28	Y28	Z28	X29	Y29	Z29	X30	Y30	Z30	X31	Y31	Z31	X32	Y32	Z32	X33	Y33	Z33	X34	Y34	Z34	X35	Y35	Z35	X36	Y36	Z36

433	3.60000	628.20178	995.55511	342.70798	444.82913	944.69843	423.54327	408.31082	596.30518	468.15662	385.51910	561.87439	462.64072	349.82901	623.19604	457.94214	337.34830	582.55023	454.74832	337.85202	502.40555	448.53683	330.30383	499.58792	337.83624	413.54825	418.53915	454.32187	416.10797	372.64038	458.70700	351.61316	408.56396	451.65485	361.00739	367.41226	453.63394	457.82520	120.99899	406.76273	428.29468	132.51634	327.51379	517.67389	125.60507	348.10828	357.28903	50.25618	434.17789	307.91132	66.98881	386.80447	326.80298	63.91788	345.08987	617.46484	1007.79858	212.41165	441.09360	963.69849	164.88661	594.68872	595.36285	133.96622	593.49438	552.30194	135.20694	531.40326	588.61963	142.00998	540.26257	545.72144	139.20720	582.40973	437.15369	163.73996	578.86603	440.24478	253.28441	620.50574	285.00000	183.01974	625.13232	237.56169	186.59708	559.26038	274.33047	193.88242	573.17102	227.62392	190.85745	644.66522	101.71452	183.17967	629.09552	105.02453	265.89832	700.09015	83.36729	233.43755	498.15811	54.69572	256.19061	483.12216	65.38105	215.40044	512.58795	50.41417	169.04979
434	3.60833	619.66907	995.17542	343.14944	436.29172	943.88519	424.10284	399.09235	596.21277	468.96500	376.12830	561.70050	463.30823	340.69394	623.19269	458.39667	328.14874	582.53558	455.17877	328.25354	502.70084	448.91611	320.27518	499.59039	338.51068	400.24655	415.34558	454.76834	400.38098	369.39871	459.36401	338.05759	408.68378	452.56085	345.14764	366.99481	454.62543	429.17395	116.09793	408.82504	398.83835	128.41211	329.22455	487.81152	116.84357	349.32373	325.01907	50.15403	437.10489	276.50967	69.35602	389.46881	294.26544	65.31982	347.87592	608.83832	1007.53912	212.90199	432.61612	962.87787	165.38548	589.06671	595.59875	134.34032	588.17310	552.36841	135.50552	525.86133	588.21600	142.38750	535.17047	545.35217	139.62119	578.44580	437.20462	164.00996	574.80579	440.19730	253.55789	617.99213	285.45685	183.12520	623.11725	238.00424	186.74283	556.81653	274.21442	194.09520	571.53900	227.96399	190.99156	644.60010	102.28656	182.97807	628.69391	104.97173	265.83878	699.91449	83.56525	233.46468	497.81274	54.49765	256.24734	482.96951	65.20790	215.46112	512.40546	50.27824	169.02670
435	3.61667	610.98169	994.69733	343.74341	427.69974	942.83032	424.73227	390.33847	595.62317	469.52539	367.40707	561.24615	463.87170	332.04041	622.68518	458.89877	319.44080	582.11035	455.65152	318.90485	502.31580	449.20081	311.13617	499.30939	339.15924	387.19162	411.98041	455.27805	384.84183	366.14465	460.13876	324.81760	408.61862	453.37762	329.70535	366.54169	455.65009	400.03830	111.40851	410.80338	369.73883	125.24748	331.38156	458.15234	108.58196	350.60016	292.80072	50.99620	440.05240	245.63264	73.26696	391.76572	262.45947	67.18388	350.91663	600.22729	1007.18500	213.49780	424.16132	962.04413	165.94067	583.44067	595.77917	134.72231	582.99066	552.53351	135.85712	521.44348	588.90692	141.61957	530.06549	545.02020	139.97585	574.47284	437.26770	164.25130	570.76355	440.30487	254.04868	615.54987	285.93561	183.30692	621.16638	238.51605	186.85222	554.55981	274.14993	194.18306	569.66321	227.97351	191.17368	644.15112	102.12452	183.21173	628.48627	105.04272	265.87683	699.72540	83.69553	233.53064	497.79337	54.31727	256.31729	482.85349	64.98710	215.55338	512.30713	50.19967	169.06326
436	3.62500	602.19623	994.09198	344.45239	419.02368	941.74823	425.41449	382.09964	594.74750	469.88620	359.03894	560.32526	464.16248	323.82654	621.78766	459.23331	311.10815	581.26489	455.96805	310.24310	501.71487	449.35437	302.46793	498.68265	339.67801	374.33429	408.49036	455.76990	369.55969	362.95801	460.90717	311.93021	408.69620	454.29068	314.64703	366.25122	456.60315	370.33475	106.93446	412.58554	340.89349	122.50294	333.68347	427.02621	100.03876	351.66504	260.36945	51.80985	442.26566	214.07256	76.60505	395.51166	230.88092	69.82412	354.02219	591.58759	1006.79608	214.18056	415.53357	961.09833	166.51434	577.76434	595.92792	135.12488	577.74988	552.69025	136.27954	515.40601	587.60840	142.57588	524.94257	544.68658	140.30209	570.55707	437.38800	164.60069	566.67413	439.97815	254.16426	613.13159	286.43829	183.47801	619.08704	239.05771	186.97726	552.11963	273.94543	194.38707	567.74866	228.01427	191.31659	643.90356	102.30312	183.19148	628.27875	105.15990	265.90158	699.57959	83.88982	233.56393	497.71124	54.14954	256.36111	482.82977	64.93516	215.54228	512.50256	50.45802	169.04929
437	3.63333	593.37335	993.39410	345.23468	409.99002	940.64233	426.05017	374.07755	593.47937	469.91907	351.08621	559.17029	464.28159	315.84256	620.63977	459.47098	303.11456	580.05743	456.20746	301.92157	500.82941	449.40048	294.04294	497.70755	339.91641	361.61212	405.01508	456.28241	354.46646	359.88763	461.73572	299.47650	408.56577	454.82956	300.23425	366.73972	458.08493	341.15338	103.74923	415.05371	312.40625	120.98997	335.39856	398.42993	94.53635	354.95035	228.46179	54.60625	445.20914	183.31134	81.85757	397.74097	199.26753	73.77211	357.05087	582.85114	1006.36987	214.98448	406.08276	960.12170	167.58278	572.03302	596.07794	135.55229	572.43304	552.84918	136.69402	509.79352	587.09558	143.06973	519.65533	544.26953	140.76927	566.35211	437.38269	164.85977	562.62988	440.18658	254.72357	610.52460	286.86041	183.68571	617.04187	239.60535	187.19841	549.66693	273.90405	194.66158	565.77039	228.06137	191.49718	643.68311	102.55656	183.25409	627.99530	105.36085	265.96274	699.38000	84.18311	233.55110	497.37479	53.91035	256.20908	482.65881	64.78608	215.56708	512.38391	50.39232	169.10376
438	3.64167	584.38770	992.57941	346.18585	400.94522	939.39661	426.68927	366.53329	591.86670	469.74655	343.51620	557.56879	464.22516	308.15955	619.02832	459.60678	295.46707	578.46576	456.41922	294.01086	499.63333	449.26035	285.75000	495.98138	339.50009	349.15210	401.56607	456.83264	339.67126	356.89764	462.63492	287.36768	408.25818	455.44653	285.66696	366.33179	458.88910	312.20547	101.20268	417.75479	284.37448	119.06850	338.78311	369.04684	88.68354	357.77917	197.46599	58.88717	448.24924	153.61540	88.11956	400.61539	169.11931	78.70753	359.63663	574.20728	1005.92847	215.87856	397.61823	959.13306	168.24596	566.16602	596.19055	136.07228	567.00989	552.95831	137.10692	503.99814	586.57819	143.51382	514.30334	543.86053	141.25177	562.15436	437.39346	165.26707	558.46106	439.98666	254.86263	607.93848	287.38159	183.89410	614.94623	240.16637	187.34883	547.22882	273.75409	194.85286	563.75928	228.12228	191.62685	643.44177	102.82777	183.27864	628.35516	105.78854	266.06012	699.17676	84.56535	233.57663	497.38867	53.80544	256.41962	482.49588	64.64682	215.54196	512.26807	50.32739	169.11827
439	3.65000	575.30945	991.71252	347.23978	391.64087	937.69910	427.18707	359.39896	589.82642	469.49078	336.37857	555.54047	463.97635	300.79633	617.01398	459.78354	288.14954	576.39032	456.45508	286.35278	498.16864	449.00928	278.36414	494.46378	339.56436	336.88782	398.09979	457.52463	325.04077	353.96722	463.61435	275.50400	407.83112	455.96533	271.33481	365.68753	459.56924	283.81113	99.47559	420.63699	257.24567	118.33989	341.50629	340.03314	83.48486	360.93845	166.56229	62.93699	450.45413	124.79574	94.87004	402.79205	140.10034	84.64600	361.93973	565.64044	1005.50513	216.86221	389.88544	958.15765	168.46799	560.22687	596.28711	136.59106	561.55750	553.08899	137.60202	498.11133	585.98425	144.13008	508.94763	543.37860	141.80560	557.84906	437.43466	165.61980	554.19360	439.90512	255.25095	605.29590	287.89761	184.15820	612.75690	240.75902	187.56032	544.69067	273.59094	195.01808	563.02637	227.53909	192.07750	643.12878	103.12422	183.32361	627.97162	106.07835	266.15289	699.03912	84.99193	233.57463	497.28799	53.72202	256.41443	482.30508	64.50624	215.54541	512.15649	50.29374	169.14153
440	3.65833	566.10950	990.56873	348.42932	382.08316	936.75476	427.94852	352.47873	587.53577	469.15726	329.45685	552.99530	463.64532	293.70575	614.41296	459.93643	281.14389	573.82904	456.40198	278.72006	496.36307	448.65222	271.09164	492.38242	339.43857	324.50363	394.55936	458.19147	310.57632	351.16650	464.68350	263.77240	407.25827	456.45270	257.44397	365.34772	460.30777	256.48688	99.21955	423.77573	230.87291	118.37755	344.13733	312.52313	80.91103	364.41431	137.32285	68.61609	452.94330	97.37461	102.02001	404.53220	112.64340	90.41827	364.12634	556.93726	1004.83838	218.05074	381.34058	957.18811	169.16353	554.19342	596.40448	137.16124	555.94611	553.23193	138.12703	492.08682	585.32397	144.69884	503.46799	542.91498	142.22639	553.50067	437.48364	166.05890	549.84241	439.99451	255.80836	602.56525	288.45294	184.41707	610.58624	241.39531	187.73564	542.10388	273.55716	195.30650	561.27411	227.47545	192.34575	643.02209	103.82407	183.17838	627.56219	106.30934	266.27692	698.81744	85.45665	233.61449	497.09091	53.58387	256.43283	482.06436	64.30536	215.56752	512.06750	50.24709	169.15973
441	3.66667	557.63245	989.66803	349.74030	372.61133	934.76459	428.48828	345.68689	584.66162	469.07425	322.90012	550.06342	463.28705	286.85406	611.36127	460.22339	274.43994	570.63684	456.46683	271.27856	494.14914	448.47534	264.24063	489.88510	339.48087	312.23572	391.14584	458.93915	296.25629	348.46530	465.74966	252.25438	406.58905	456.94998	244.02687	364.96268	461.19458	230.80710	100.41475	426.78760	205.73431	118.90707	346.44312	285.92001	78.68916	367.37680	109.96403	74.65887	455.41586	70.81699	108.34528	407.25348	86.80862	95.81479	365.91333	548.28021	1004.07294	219.32829	372.75430	956.24451	169.74142	547.96875	596.41449	137.76904	550.24561	553.22229	138.68575	486.45547	585.39966	144.61533	497.75247	542.35901	142.81671	549.12634	437.42838	166.52983	545.37817	439.81436	256.26590	599.93811	289.11435	184.72237	608.19910	241.89407	188.06819	539.44818	273.31381	195.63831	559.03003	227.54245	192.57472	642.49805	103.81349	183.48802	627.07239	106.49596	266.46899	698.62366	85.89449	233.71942	496.92245	53.39558	256.48776	481.92743	64.06397	215.63136	511.90076	50.18319	169.20206
